<svg width="30" height="30" viewBox="0 0 30 30" fill="none" xmlns="http://www.w3.org/2000/svg">
<path d="M15.9 2.53784C14.1118 2.40767 12.3166 2.66405 10.6363 3.28954C8.95608 3.91504 7.43019 4.89498 6.16242 6.16275C4.89464 7.43053 3.9147 8.95641 3.28921 10.6367C2.66371 12.3169 2.40734 14.1122 2.53751 15.9003C2.98751 22.5128 8.76251 27.5003 15.3875 27.5003H20C20.6875 27.5003 21.25 26.9378 21.25 26.2503C21.25 25.5628 20.6875 25.0003 20 25.0003H15.4125C10.75 25.0003 6.47501 21.9753 5.31251 17.4628C3.45001 10.2128 10.2 3.45034 17.45 5.32534C21.975 6.47534 25 10.7503 25 15.4128V16.7878C25 17.7753 24.1125 18.7503 23.125 18.7503C22.1375 18.7503 21.25 17.7753 21.25 16.7878V15.2253C21.25 12.0878 19.025 9.26284 15.925 8.82534C14.9387 8.67868 13.9316 8.76976 12.9876 9.09099C12.0437 9.41222 11.1901 9.9543 10.4979 10.6721C9.8058 11.3899 9.29515 12.2627 9.00851 13.2178C8.72187 14.1728 8.66753 15.1825 8.85001 16.1628C9.06924 17.3441 9.62454 18.437 10.4493 19.3105C11.2741 20.1841 12.3333 20.8012 13.5 21.0878C15.8 21.6253 17.9875 20.8878 19.425 19.4253C20.5375 20.9503 22.7625 21.7503 24.8 20.9378C26.475 20.2753 27.5 18.5628 27.5 16.7628V15.4003C27.5 8.76284 22.5125 2.98784 15.9 2.53784ZM15 18.7503C12.925 18.7503 11.25 17.0753 11.25 15.0003C11.25 12.9253 12.925 11.2503 15 11.2503C17.075 11.2503 18.75 12.9253 18.75 15.0003C18.75 17.0753 17.075 18.7503 15 18.7503Z" fill="#347BCE"/>
</svg>
