<svg width="30" height="30" viewBox="0 0 30 30" fill="none" xmlns="http://www.w3.org/2000/svg">
<path fill-rule="evenodd" clip-rule="evenodd" d="M14.535 28.3995L14.5395 28.401C14.835 28.53 15 28.5 15 28.5C15 28.5 15.165 28.53 15.462 28.401L15.465 28.3995L15.474 28.395L15.501 28.383C15.6434 28.3169 15.7839 28.2468 15.9225 28.173C16.2015 28.029 16.5915 27.813 17.058 27.5235C17.988 26.9475 19.2255 26.0745 20.469 24.876C22.953 22.482 25.5 18.7395 25.5 13.5C25.5 12.1211 25.2284 10.7557 24.7007 9.48182C24.1731 8.20791 23.3996 7.05039 22.4246 6.07538C21.4496 5.10036 20.2921 4.32694 19.0182 3.79926C17.7443 3.27159 16.3789 3 15 3C13.6211 3 12.2557 3.27159 10.9818 3.79926C9.70791 4.32694 8.55039 5.10036 7.57538 6.07538C6.60036 7.05039 5.82694 8.20791 5.29927 9.48182C4.77159 10.7557 4.5 12.1211 4.5 13.5C4.5 18.738 7.047 22.482 9.5325 24.876C10.5731 25.8755 11.7159 26.7629 12.942 27.5235C13.4169 27.8184 13.9054 28.0907 14.406 28.3395L14.499 28.383L14.526 28.395L14.535 28.3995ZM15 16.875C15.8951 16.875 16.7535 16.5194 17.3865 15.8865C18.0194 15.2535 18.375 14.3951 18.375 13.5C18.375 12.6049 18.0194 11.7465 17.3865 11.1135C16.7535 10.4806 15.8951 10.125 15 10.125C14.1049 10.125 13.2465 10.4806 12.6135 11.1135C11.9806 11.7465 11.625 12.6049 11.625 13.5C11.625 14.3951 11.9806 15.2535 12.6135 15.8865C13.2465 16.5194 14.1049 16.875 15 16.875Z" fill="#347BCE"/>
</svg>
